<?xml version="1.0" standalone="no"?>
<!DOCTYPE svg PUBLIC "-//W3C//DTD SVG 20010904//EN"
 "http://www.w3.org/TR/2001/REC-SVG-20010904/DTD/svg10.dtd">
<svg version="1.0" xmlns="http://www.w3.org/2000/svg"
 width="512.000000pt" height="512.000000pt" viewBox="0 0 512.000000 512.000000"
 preserveAspectRatio="xMidYMid meet">
<metadata>
Created by potrace 1.16, written by Peter Selinger 2001-2019
</metadata>
<g transform="translate(0.000000,512.000000) scale(0.100000,-0.100000)"
fill="#000000" stroke="none">
<path d="M2405 3906 c-116 -19 -256 -53 -317 -77 -78 -30 -253 -124 -316 -168
-80 -58 -266 -245 -319 -323 -26 -37 -50 -68 -55 -68 -4 0 -8 -8 -8 -19 0 -10
-11 -38 -24 -62 -37 -65 -92 -214 -122 -326 -34 -131 -44 -361 -20 -504 19
-117 70 -277 125 -393 23 -46 41 -90 41 -95 0 -6 8 -19 18 -29 9 -11 37 -46
60 -80 56 -78 234 -253 314 -309 210 -147 513 -245 758 -247 170 -2 348 22
415 54 46 22 137 52 142 46 4 -3 11 -2 17 3 6 6 36 23 66 39 30 16 93 55 139
88 46 32 85 57 87 54 10 -15 205 201 276 307 19 29 37 51 39 48 7 -7 96 184
125 267 89 259 89 637 0 896 -29 83 -118 274 -125 267 -2 -3 -20 19 -39 48
-68 101 -272 330 -272 304 0 -3 -39 21 -87 55 -49 34 -113 74 -143 90 -30 16
-60 33 -66 39 -6 5 -13 6 -17 3 -5 -6 -96 24 -142 46 -30 15 -144 40 -195 44
-190 13 -282 14 -355 2z m712 -550 l28 -24 3 -483 c2 -326 -1 -500 -8 -536
-15 -72 -61 -131 -129 -165 -86 -44 -166 -35 -239 28 -104 88 -115 219 -28
321 52 60 122 87 203 78 l63 -7 0 191 c0 151 -3 191 -13 191 -7 0 -157 -51
-333 -114 l-319 -114 -5 -359 c-3 -244 -9 -366 -17 -384 -32 -73 -138 -149
-207 -149 -91 0 -203 84 -226 170 -26 98 15 200 105 255 44 27 56 30 132 29
l83 -1 0 382 c0 375 0 382 21 401 18 16 811 310 846 313 7 1 25 -10 40 -23z"/>
</g>
</svg>
